Release Group: RUNNER
Release Name: Teen.Titans.S01.EXTRAS.INTERNAL.DVDRip.XviD-RUNNER
Release Date: 2003-07-19
Filename: Teen.Titans.S01.EXTRAS.INTERNAL.DVDRip.XviD-RUNNER.avi
Source: DVDRip
Size: 174.10
Genre: Action
Runtime: N/a


Season 01 Episode 00 - Final Exam

Three H.I.V.E. graduates, Mammoth, Jinx, and Gizmo, are sent by the mysterious Slade to attack the Titans. While presumably well-trained and able to control their powers, the Titans get completely overpowered by the bad guys! Will the Titans be able to defeat these three villains and ruin Slade's plan?.


General
Format                           : AVI
Format/Info                      : Audio Video Interleave
File size                        : 174 MiB
Duration                         : 21mn 55s
Overall bit rate                 : 1 111 Kbps
Writing application              : Nandub v1.0rc2
Writing library                  : Nandub build 1852/release

Video
ID                               : 0
Format                           : MPEG-4 Visual
Format profile                   : Advanced Simple@L5
Format settings, BVOP            : No
Format settings, QPel            : No
Format settings, GMC             : No warppoints
Format settings, Matrix          : Default (H.263)
Codec ID                         : XVID
Codec ID/Hint                    : XviD
Duration                         : 21mn 55s
Bit rate                         : 962 Kbps
Width                            : 512 pixels
Height                           : 384 pixels
Display aspect ratio             : 4:3
Frame rate                       : 23.976 fps
Color space                      : YUV
Chroma subsampling               : 4:2:0
Bit depth                        : 8 bits
Scan type                        : Progressive
Bits/(Pixel*Frame)               : 0.204
Stream size                      : 151 MiB (87%)
Writing library                  : XviD 1.2.1 (UTC 2008-12-04)

Audio
ID                               : 1
Format                           : MPEG Audio
Format version                   : Version 1
Format profile                   : Layer 3
Mode                             : Joint stereo
Codec ID                         : 55
Codec ID/Hint                    : MP3
Duration                         : 21mn 55s
Bit rate mode                    : Variable
Bit rate                         : 130 Kbps
Channel(s)                       : 2 channels
Sampling rate                    : 48.0 KHz
Stream size                      : 21.3 MiB (12%)
Alignment                        : Aligned on interleaves
Interleave, duration             : 24 ms (0.58 video frame)
Interleave, preload duration     : 274 ms
Writing library                  : LAME3.90.
Encoding settings                : -m j -V 4 -q 2 -lowpass 17.6 --abr 130